<?xml version="1.0" encoding="utf-8"?>
<!-- Generator: Adobe Illustrator 26.0.1, SVG Export Plug-In . SVG Version: 6.00 Build 0)  -->
<svg version="1.1" id="Layer_1" xmlns="http://www.w3.org/2000/svg" xmlns:xlink="http://www.w3.org/1999/xlink" x="0px" y="0px"
	 viewBox="0 0 1079.1 409.1" style="enable-background:new 0 0 1079.1 409.1;" xml:space="preserve">
<style type="text/css">
	.st0{fill:#1D356F;}
	.st1{fill:#08BC6D;}
	.st2{fill:none;stroke:#FFFFFF;stroke-width:7;stroke-linecap:round;stroke-miterlimit:10;}
	.st3{fill:#FFFFFF;}
	.st4{fill:none;stroke:#1D356F;stroke-width:7;stroke-linecap:round;stroke-miterlimit:10;}
	.st5{fill:#2F8BF0;}
	.st6{clip-path:url(#SVGID_00000105386221190906165830000011013987021342408383_);fill:#4763E8;}
	.st7{clip-path:url(#SVGID_00000105386221190906165830000011013987021342408383_);fill:#4664E8;}
	.st8{clip-path:url(#SVGID_00000105386221190906165830000011013987021342408383_);fill:#4665E8;}
	.st9{clip-path:url(#SVGID_00000105386221190906165830000011013987021342408383_);fill:#4566E9;}
	.st10{clip-path:url(#SVGID_00000105386221190906165830000011013987021342408383_);fill:#4567E9;}
	.st11{clip-path:url(#SVGID_00000105386221190906165830000011013987021342408383_);fill:#4468E9;}
	.st12{clip-path:url(#SVGID_00000105386221190906165830000011013987021342408383_);fill:#4369E9;}
	.st13{clip-path:url(#SVGID_00000105386221190906165830000011013987021342408383_);fill:#436AE9;}
	.st14{clip-path:url(#SVGID_00000105386221190906165830000011013987021342408383_);fill:#426BEA;}
	.st15{clip-path:url(#SVGID_00000105386221190906165830000011013987021342408383_);fill:#416CEA;}
	.st16{clip-path:url(#SVGID_00000105386221190906165830000011013987021342408383_);fill:#416DEA;}
	.st17{clip-path:url(#SVGID_00000105386221190906165830000011013987021342408383_);fill:#406EEA;}
	.st18{clip-path:url(#SVGID_00000105386221190906165830000011013987021342408383_);fill:#406FEA;}
	.st19{clip-path:url(#SVGID_00000105386221190906165830000011013987021342408383_);fill:#3F70EB;}
	.st20{clip-path:url(#SVGID_00000105386221190906165830000011013987021342408383_);fill:#3E71EB;}
	.st21{clip-path:url(#SVGID_00000105386221190906165830000011013987021342408383_);fill:#3E72EB;}
	.st22{clip-path:url(#SVGID_00000105386221190906165830000011013987021342408383_);fill:#3D73EB;}
	.st23{clip-path:url(#SVGID_00000105386221190906165830000011013987021342408383_);fill:#3D74EB;}
	.st24{clip-path:url(#SVGID_00000105386221190906165830000011013987021342408383_);fill:#3C75EC;}
	.st25{clip-path:url(#SVGID_00000105386221190906165830000011013987021342408383_);fill:#3B76EC;}
	.st26{clip-path:url(#SVGID_00000105386221190906165830000011013987021342408383_);fill:#3B78EC;}
	.st27{clip-path:url(#SVGID_00000105386221190906165830000011013987021342408383_);fill:#3A79EC;}
	.st28{clip-path:url(#SVGID_00000105386221190906165830000011013987021342408383_);fill:#397AED;}
	.st29{clip-path:url(#SVGID_00000105386221190906165830000011013987021342408383_);fill:#397BED;}
	.st30{clip-path:url(#SVGID_00000105386221190906165830000011013987021342408383_);fill:#387CED;}
	.st31{clip-path:url(#SVGID_00000105386221190906165830000011013987021342408383_);fill:#387DED;}
	.st32{clip-path:url(#SVGID_00000105386221190906165830000011013987021342408383_);fill:#377EED;}
	.st33{clip-path:url(#SVGID_00000105386221190906165830000011013987021342408383_);fill:#367FEE;}
	.st34{clip-path:url(#SVGID_00000105386221190906165830000011013987021342408383_);fill:#3680EE;}
	.st35{clip-path:url(#SVGID_00000105386221190906165830000011013987021342408383_);fill:#3581EE;}
	.st36{clip-path:url(#SVGID_00000105386221190906165830000011013987021342408383_);fill:#3582EE;}
	.st37{clip-path:url(#SVGID_00000105386221190906165830000011013987021342408383_);fill:#3483EE;}
	.st38{clip-path:url(#SVGID_00000105386221190906165830000011013987021342408383_);fill:#3384EF;}
	.st39{clip-path:url(#SVGID_00000105386221190906165830000011013987021342408383_);fill:#3385EF;}
	.st40{clip-path:url(#SVGID_00000105386221190906165830000011013987021342408383_);fill:#3286EF;}
	.st41{clip-path:url(#SVGID_00000105386221190906165830000011013987021342408383_);fill:#3187EF;}
	.st42{clip-path:url(#SVGID_00000105386221190906165830000011013987021342408383_);fill:#3188EF;}
	.st43{clip-path:url(#SVGID_00000105386221190906165830000011013987021342408383_);fill:#3089F0;}
	.st44{clip-path:url(#SVGID_00000105386221190906165830000011013987021342408383_);fill:#308AF0;}
	.st45{clip-path:url(#SVGID_00000105386221190906165830000011013987021342408383_);fill:#2F8BF0;}
	.st46{clip-path:url(#SVGID_00000129896432969024798140000018311303358753321120_);fill:#FEA702;}
	.st47{clip-path:url(#SVGID_00000129896432969024798140000018311303358753321120_);fill:#FEA602;}
	.st48{clip-path:url(#SVGID_00000129896432969024798140000018311303358753321120_);fill:#FEA502;}
	.st49{clip-path:url(#SVGID_00000129896432969024798140000018311303358753321120_);fill:#FEA402;}
	.st50{clip-path:url(#SVGID_00000129896432969024798140000018311303358753321120_);fill:#FEA302;}
	.st51{clip-path:url(#SVGID_00000129896432969024798140000018311303358753321120_);fill:#FEA202;}
	.st52{clip-path:url(#SVGID_00000129896432969024798140000018311303358753321120_);fill:#FEA102;}
	.st53{clip-path:url(#SVGID_00000129896432969024798140000018311303358753321120_);fill:#FEA002;}
	.st54{clip-path:url(#SVGID_00000129896432969024798140000018311303358753321120_);fill:#FE9F02;}
	.st55{clip-path:url(#SVGID_00000129896432969024798140000018311303358753321120_);fill:#FE9E02;}
	.st56{clip-path:url(#SVGID_00000129896432969024798140000018311303358753321120_);fill:#FE9D02;}
	.st57{clip-path:url(#SVGID_00000129896432969024798140000018311303358753321120_);fill:#FE9C02;}
	.st58{clip-path:url(#SVGID_00000129896432969024798140000018311303358753321120_);fill:#FE9B02;}
	.st59{clip-path:url(#SVGID_00000129896432969024798140000018311303358753321120_);fill:#FE9A02;}
	.st60{clip-path:url(#SVGID_00000129896432969024798140000018311303358753321120_);fill:#FE9902;}
	.st61{clip-path:url(#SVGID_00000129896432969024798140000018311303358753321120_);fill:#FE9802;}
	.st62{clip-path:url(#SVGID_00000129896432969024798140000018311303358753321120_);fill:#FE9702;}
	.st63{clip-path:url(#SVGID_00000129896432969024798140000018311303358753321120_);fill:#FE9602;}
	.st64{clip-path:url(#SVGID_00000129896432969024798140000018311303358753321120_);fill:#FE9502;}
	.st65{clip-path:url(#SVGID_00000129896432969024798140000018311303358753321120_);fill:#FE9402;}
	.st66{clip-path:url(#SVGID_00000129896432969024798140000018311303358753321120_);fill:#FE9302;}
	.st67{clip-path:url(#SVGID_00000129896432969024798140000018311303358753321120_);fill:#FE9202;}
	.st68{clip-path:url(#SVGID_00000129896432969024798140000018311303358753321120_);fill:#FE9102;}
	.st69{clip-path:url(#SVGID_00000129896432969024798140000018311303358753321120_);fill:#FE9002;}
	.st70{clip-path:url(#SVGID_00000129896432969024798140000018311303358753321120_);fill:#FF8E01;}
	.st71{clip-path:url(#SVGID_00000129896432969024798140000018311303358753321120_);fill:#FF8D01;}
	.st72{clip-path:url(#SVGID_00000129896432969024798140000018311303358753321120_);fill:#FF8C01;}
	.st73{clip-path:url(#SVGID_00000129896432969024798140000018311303358753321120_);fill:#FF8B01;}
	.st74{clip-path:url(#SVGID_00000129896432969024798140000018311303358753321120_);fill:#FF8A01;}
	.st75{clip-path:url(#SVGID_00000129896432969024798140000018311303358753321120_);fill:#FF8901;}
	.st76{clip-path:url(#SVGID_00000129896432969024798140000018311303358753321120_);fill:#FF8801;}
	.st77{clip-path:url(#SVGID_00000129896432969024798140000018311303358753321120_);fill:#FF8701;}
	.st78{clip-path:url(#SVGID_00000129896432969024798140000018311303358753321120_);fill:#FF8601;}
	.st79{clip-path:url(#SVGID_00000129896432969024798140000018311303358753321120_);fill:#FF8501;}
	.st80{clip-path:url(#SVGID_00000129896432969024798140000018311303358753321120_);fill:#FF8401;}
	.st81{clip-path:url(#SVGID_00000129896432969024798140000018311303358753321120_);fill:#FF8301;}
	.st82{clip-path:url(#SVGID_00000129896432969024798140000018311303358753321120_);fill:#FF8201;}
	.st83{clip-path:url(#SVGID_00000129896432969024798140000018311303358753321120_);fill:#FF8101;}
	.st84{clip-path:url(#SVGID_00000129896432969024798140000018311303358753321120_);fill:#FF8001;}
	.st85{clip-path:url(#SVGID_00000129896432969024798140000018311303358753321120_);fill:#FF7F01;}
	.st86{clip-path:url(#SVGID_00000129896432969024798140000018311303358753321120_);fill:#FF7E01;}
	.st87{clip-path:url(#SVGID_00000129896432969024798140000018311303358753321120_);fill:#FF7D01;}
	.st88{clip-path:url(#SVGID_00000129896432969024798140000018311303358753321120_);fill:#FF7C01;}
	.st89{clip-path:url(#SVGID_00000129896432969024798140000018311303358753321120_);fill:#FF7B01;}
	.st90{clip-path:url(#SVGID_00000129896432969024798140000018311303358753321120_);fill:#FF7A01;}
	.st91{clip-path:url(#SVGID_00000129896432969024798140000018311303358753321120_);fill:#FF7901;}
	.st92{clip-path:url(#SVGID_00000129896432969024798140000018311303358753321120_);fill:#FF7801;}
	.st93{clip-path:url(#SVGID_00000129896432969024798140000018311303358753321120_);fill:#FF7701;}
	.st94{clip-path:url(#SVGID_00000112593048899749964200000007158478638989260982_);fill:#2F8BF0;}
	.st95{clip-path:url(#SVGID_00000112593048899749964200000007158478638989260982_);fill:#308AF0;}
	.st96{clip-path:url(#SVGID_00000112593048899749964200000007158478638989260982_);fill:#3089F0;}
	.st97{clip-path:url(#SVGID_00000112593048899749964200000007158478638989260982_);fill:#3188EF;}
	.st98{clip-path:url(#SVGID_00000112593048899749964200000007158478638989260982_);fill:#3187EF;}
	.st99{clip-path:url(#SVGID_00000112593048899749964200000007158478638989260982_);fill:#3286EF;}
	.st100{clip-path:url(#SVGID_00000112593048899749964200000007158478638989260982_);fill:#3385EF;}
	.st101{clip-path:url(#SVGID_00000112593048899749964200000007158478638989260982_);fill:#3384EF;}
	.st102{clip-path:url(#SVGID_00000112593048899749964200000007158478638989260982_);fill:#3483EE;}
	.st103{clip-path:url(#SVGID_00000112593048899749964200000007158478638989260982_);fill:#3582EE;}
	.st104{clip-path:url(#SVGID_00000112593048899749964200000007158478638989260982_);fill:#3581EE;}
	.st105{clip-path:url(#SVGID_00000112593048899749964200000007158478638989260982_);fill:#3680EE;}
	.st106{clip-path:url(#SVGID_00000112593048899749964200000007158478638989260982_);fill:#367FEE;}
	.st107{clip-path:url(#SVGID_00000112593048899749964200000007158478638989260982_);fill:#377EED;}
	.st108{clip-path:url(#SVGID_00000112593048899749964200000007158478638989260982_);fill:#387DED;}
	.st109{clip-path:url(#SVGID_00000112593048899749964200000007158478638989260982_);fill:#387CED;}
	.st110{clip-path:url(#SVGID_00000112593048899749964200000007158478638989260982_);fill:#397BED;}
	.st111{clip-path:url(#SVGID_00000112593048899749964200000007158478638989260982_);fill:#397AED;}
	.st112{clip-path:url(#SVGID_00000112593048899749964200000007158478638989260982_);fill:#3A79EC;}
	.st113{clip-path:url(#SVGID_00000112593048899749964200000007158478638989260982_);fill:#3B78EC;}
	.st114{clip-path:url(#SVGID_00000112593048899749964200000007158478638989260982_);fill:#3B76EC;}
	.st115{clip-path:url(#SVGID_00000112593048899749964200000007158478638989260982_);fill:#3C75EC;}
	.st116{clip-path:url(#SVGID_00000112593048899749964200000007158478638989260982_);fill:#3D74EB;}
	.st117{clip-path:url(#SVGID_00000112593048899749964200000007158478638989260982_);fill:#3D73EB;}
	.st118{clip-path:url(#SVGID_00000112593048899749964200000007158478638989260982_);fill:#3E72EB;}
	.st119{clip-path:url(#SVGID_00000112593048899749964200000007158478638989260982_);fill:#3E71EB;}
	.st120{clip-path:url(#SVGID_00000112593048899749964200000007158478638989260982_);fill:#3F70EB;}
	.st121{clip-path:url(#SVGID_00000112593048899749964200000007158478638989260982_);fill:#406FEA;}
	.st122{clip-path:url(#SVGID_00000112593048899749964200000007158478638989260982_);fill:#406EEA;}
	.st123{clip-path:url(#SVGID_00000112593048899749964200000007158478638989260982_);fill:#416DEA;}
	.st124{clip-path:url(#SVGID_00000112593048899749964200000007158478638989260982_);fill:#416CEA;}
	.st125{clip-path:url(#SVGID_00000112593048899749964200000007158478638989260982_);fill:#426BEA;}
	.st126{clip-path:url(#SVGID_00000112593048899749964200000007158478638989260982_);fill:#436AE9;}
	.st127{clip-path:url(#SVGID_00000112593048899749964200000007158478638989260982_);fill:#4369E9;}
	.st128{clip-path:url(#SVGID_00000112593048899749964200000007158478638989260982_);fill:#4468E9;}
	.st129{clip-path:url(#SVGID_00000112593048899749964200000007158478638989260982_);fill:#4567E9;}
	.st130{clip-path:url(#SVGID_00000112593048899749964200000007158478638989260982_);fill:#4566E9;}
	.st131{clip-path:url(#SVGID_00000112593048899749964200000007158478638989260982_);fill:#4665E8;}
	.st132{clip-path:url(#SVGID_00000112593048899749964200000007158478638989260982_);fill:#4664E8;}
	.st133{clip-path:url(#SVGID_00000112593048899749964200000007158478638989260982_);fill:#4763E8;}
	.st134{clip-path:url(#SVGID_00000104675726938107875710000011571617020070183823_);fill:#FEA702;}
	.st135{clip-path:url(#SVGID_00000104675726938107875710000011571617020070183823_);fill:#FEA602;}
	.st136{clip-path:url(#SVGID_00000104675726938107875710000011571617020070183823_);fill:#FEA502;}
	.st137{clip-path:url(#SVGID_00000104675726938107875710000011571617020070183823_);fill:#FEA402;}
	.st138{clip-path:url(#SVGID_00000104675726938107875710000011571617020070183823_);fill:#FEA302;}
	.st139{clip-path:url(#SVGID_00000104675726938107875710000011571617020070183823_);fill:#FEA202;}
	.st140{clip-path:url(#SVGID_00000104675726938107875710000011571617020070183823_);fill:#FEA102;}
	.st141{clip-path:url(#SVGID_00000104675726938107875710000011571617020070183823_);fill:#FEA002;}
	.st142{clip-path:url(#SVGID_00000104675726938107875710000011571617020070183823_);fill:#FE9F02;}
	.st143{clip-path:url(#SVGID_00000104675726938107875710000011571617020070183823_);fill:#FE9E02;}
	.st144{clip-path:url(#SVGID_00000104675726938107875710000011571617020070183823_);fill:#FE9D02;}
	.st145{clip-path:url(#SVGID_00000104675726938107875710000011571617020070183823_);fill:#FE9C02;}
	.st146{clip-path:url(#SVGID_00000104675726938107875710000011571617020070183823_);fill:#FE9B02;}
	.st147{clip-path:url(#SVGID_00000104675726938107875710000011571617020070183823_);fill:#FE9A02;}
	.st148{clip-path:url(#SVGID_00000104675726938107875710000011571617020070183823_);fill:#FE9902;}
	.st149{clip-path:url(#SVGID_00000104675726938107875710000011571617020070183823_);fill:#FE9802;}
	.st150{clip-path:url(#SVGID_00000104675726938107875710000011571617020070183823_);fill:#FE9702;}
	.st151{clip-path:url(#SVGID_00000104675726938107875710000011571617020070183823_);fill:#FE9602;}
	.st152{clip-path:url(#SVGID_00000104675726938107875710000011571617020070183823_);fill:#FE9502;}
	.st153{clip-path:url(#SVGID_00000104675726938107875710000011571617020070183823_);fill:#FE9402;}
	.st154{clip-path:url(#SVGID_00000104675726938107875710000011571617020070183823_);fill:#FE9302;}
	.st155{clip-path:url(#SVGID_00000104675726938107875710000011571617020070183823_);fill:#FE9202;}
	.st156{clip-path:url(#SVGID_00000104675726938107875710000011571617020070183823_);fill:#FE9102;}
	.st157{clip-path:url(#SVGID_00000104675726938107875710000011571617020070183823_);fill:#FE9002;}
	.st158{clip-path:url(#SVGID_00000104675726938107875710000011571617020070183823_);fill:#FF8E01;}
	.st159{clip-path:url(#SVGID_00000104675726938107875710000011571617020070183823_);fill:#FF8D01;}
	.st160{clip-path:url(#SVGID_00000104675726938107875710000011571617020070183823_);fill:#FF8C01;}
	.st161{clip-path:url(#SVGID_00000104675726938107875710000011571617020070183823_);fill:#FF8B01;}
	.st162{clip-path:url(#SVGID_00000104675726938107875710000011571617020070183823_);fill:#FF8A01;}
	.st163{clip-path:url(#SVGID_00000104675726938107875710000011571617020070183823_);fill:#FF8901;}
	.st164{clip-path:url(#SVGID_00000104675726938107875710000011571617020070183823_);fill:#FF8801;}
	.st165{clip-path:url(#SVGID_00000104675726938107875710000011571617020070183823_);fill:#FF8701;}
	.st166{clip-path:url(#SVGID_00000104675726938107875710000011571617020070183823_);fill:#FF8601;}
	.st167{clip-path:url(#SVGID_00000104675726938107875710000011571617020070183823_);fill:#FF8501;}
	.st168{clip-path:url(#SVGID_00000104675726938107875710000011571617020070183823_);fill:#FF8401;}
	.st169{clip-path:url(#SVGID_00000104675726938107875710000011571617020070183823_);fill:#FF8301;}
	.st170{clip-path:url(#SVGID_00000104675726938107875710000011571617020070183823_);fill:#FF8201;}
	.st171{clip-path:url(#SVGID_00000104675726938107875710000011571617020070183823_);fill:#FF8101;}
	.st172{clip-path:url(#SVGID_00000104675726938107875710000011571617020070183823_);fill:#FF8001;}
	.st173{clip-path:url(#SVGID_00000104675726938107875710000011571617020070183823_);fill:#FF7F01;}
	.st174{clip-path:url(#SVGID_00000104675726938107875710000011571617020070183823_);fill:#FF7E01;}
	.st175{clip-path:url(#SVGID_00000104675726938107875710000011571617020070183823_);fill:#FF7D01;}
	.st176{clip-path:url(#SVGID_00000104675726938107875710000011571617020070183823_);fill:#FF7C01;}
	.st177{clip-path:url(#SVGID_00000104675726938107875710000011571617020070183823_);fill:#FF7B01;}
	.st178{clip-path:url(#SVGID_00000104675726938107875710000011571617020070183823_);fill:#FF7A01;}
	.st179{clip-path:url(#SVGID_00000104675726938107875710000011571617020070183823_);fill:#FF7901;}
	.st180{clip-path:url(#SVGID_00000104675726938107875710000011571617020070183823_);fill:#FF7801;}
	.st181{clip-path:url(#SVGID_00000104675726938107875710000011571617020070183823_);fill:#FF7701;}
	.st182{fill:#FEA702;}
	.st183{fill:url(#SVGID_00000165234058804279629860000008933951231045055387_);}
	.st184{fill:url(#SVGID_00000159459291462483501300000008565309491643606973_);}
	.st185{fill:url(#SVGID_00000029009093245971118700000012657074124291245717_);}
	.st186{fill:url(#SVGID_00000112625595225866778020000011774631123074070146_);}
</style>
<path class="st1" d="M273.8,182.9c11-49.4-32.8-52.3-32.8-52.3c-11-30.9-37.9-23.9-37.9-23.9s-7.7-26.1-44.9-26.1
	c-37.2,0-49.4,26.5-49.4,26.5c-30.9-3.3-35.4,24.7-35.4,24.7c-14.4-4.1-36.8,16.9-36.8,30.2c0,13.3,4.8,19.2,4.8,19.2s-7,2.2-7,23.6
	s22.1,23.6,22.1,23.6l7.7,28.4l1.8-33.9l4.8-6.6c5.5,16.6,12.9,14.4,12.9,14.4l2.6,36.1l2.9-36.1c6.3-9.6,13.4-1.5,13.4-1.5
	l5.2,27.3l0.6-26.3l4.2-9c8.3,10.3,21.5,16.2,21.5,16.2v23.9c0,2-0.3,3.9-0.9,5.8c-9.7,27.9-53.2,21.1-53.2,21.1
	c17.7,9.6,35,10.7,35,10.7c-9.6,11.8-4.8,25.4-4.8,25.4s14.4-28,27.6-29.1c13.3-1.1,19.2,18,19.2,18s9.2-16.6,19.2-16.6
	c9.9,0,29.5,28.7,29.5,28.7c1.5-13.3-5.2-28.4-5.2-28.4c18.8,0,30.9-10.7,30.9-10.7c-52.3,4.8-50.8-27.6-50.8-27.6v-22.5
	c15.8-3.3,21.4-15.8,21.4-15.8c2.2,2.2,6.3,38.7,6.3,38.7l2.9-30.2c7.7-3.7,13.3,0.7,13.3,0.7l4.4,41.2l4.4-38.3
	c8.8-4.4,9.6-14.4,9.6-14.4l7,6.6l2.9,31.7l4.1-28c19.9,0,25.8-13.6,25.8-26.1C282.7,189.5,273.8,182.9,273.8,182.9z M174.4,92.5
	c4.1,0,7.4,3.3,7.4,7.4c0,4.1-3.3,7.4-7.4,7.4s-7.4-3.3-7.4-7.4C167,95.8,170.3,92.5,174.4,92.5z M185.5,185.6
	c4.1,0,7.4,3.3,7.4,7.4s-3.3,7.4-7.4,7.4c-4.1,0-7.4-3.3-7.4-7.4S181.4,185.6,185.5,185.6z M168.1,133.1c4.1,0,7.4,3.3,7.4,7.4
	s-3.3,7.4-7.4,7.4c-4.1,0-7.4-3.3-7.4-7.4S164.1,133.1,168.1,133.1z M140.9,112.9c4.1,0,7.4,3.3,7.4,7.4s-3.3,7.4-7.4,7.4
	s-7.4-3.3-7.4-7.4S136.8,112.9,140.9,112.9z M137.8,193.5c0,4.1-3.3,7.4-7.4,7.4c-4.1,0-7.4-3.3-7.4-7.4c0-4.1,3.3-7.4,7.4-7.4
	C134.5,186.2,137.8,189.5,137.8,193.5z M89.1,139.2c4.1,0,7.4,3.3,7.4,7.4s-3.3,7.4-7.4,7.4s-7.4-3.3-7.4-7.4S85.1,139.2,89.1,139.2
	z M59.9,173.3c-4.1,0-7.4-3.3-7.4-7.4c0-4.1,3.3-7.4,7.4-7.4c4.1,0,7.4,3.3,7.4,7.4C67.2,170,63.9,173.3,59.9,173.3z M74.8,208.3
	c-4.1,0-7.4-3.3-7.4-7.4s3.3-7.4,7.4-7.4s7.4,3.3,7.4,7.4S78.8,208.3,74.8,208.3z M89.5,181.2c-4.1,0-7.4-3.3-7.4-7.4
	c0-4.1,3.3-7.4,7.4-7.4s7.4,3.3,7.4,7.4C96.9,177.9,93.6,181.2,89.5,181.2z M103.7,216.2c-4.1,0-7.4-3.3-7.4-7.4s3.3-7.4,7.4-7.4
	s7.4,3.3,7.4,7.4S107.8,216.2,103.7,216.2z M110,139.8c0-4.1,3.3-7.4,7.4-7.4s7.4,3.3,7.4,7.4s-3.3,7.4-7.4,7.4S110,143.8,110,139.8
	z M118.6,166.7c0-4.1,3.3-7.4,7.4-7.4s7.4,3.3,7.4,7.4S130,174,126,174S118.6,170.7,118.6,166.7z M122.3,213.6
	c5.8,3.3,12.5,4.4,19,3.9c1.9-0.2,4.2-0.4,5.9-0.9l0.6,10.2C138.1,225.5,128.6,221.2,122.3,213.6z M153.6,182.9
	c-4.1,0-7.4-3.3-7.4-7.4s3.3-7.4,7.4-7.4s7.4,3.3,7.4,7.4S157.7,182.9,153.6,182.9z M160.8,201.5c0-4.1,3.3-7.4,7.4-7.4
	c4.1,0,7.4,3.3,7.4,7.4c0,4.1-3.3,7.4-7.4,7.4C164.1,208.8,160.8,205.5,160.8,201.5z M182.1,222.4c-4.6,2.3-9.2,3.8-14.4,4.5
	c0,0,0.6-10.2,0.6-10.2c6,1.5,12.7,1.4,18.7-0.4c2.1-0.6,4.2-1.5,6.2-2.6C190.2,217.3,186.3,220.3,182.1,222.4z M187.1,171.1
	c-4.1,0-7.4-3.3-7.4-7.4s3.3-7.4,7.4-7.4c4.1,0,7.4,3.3,7.4,7.4S191.2,171.1,187.1,171.1z M196.1,135.2c-4.1,0-7.4-3.3-7.4-7.4
	c0-4.1,3.3-7.4,7.4-7.4s7.4,3.3,7.4,7.4C203.5,131.9,200.2,135.2,196.1,135.2z M210.1,216.2c-4.1,0-7.4-3.3-7.4-7.4s3.3-7.4,7.4-7.4
	c4.1,0,7.4,3.3,7.4,7.4S214.2,216.2,210.1,216.2z M217.5,147.5c0-4.1,3.3-7.4,7.4-7.4s7.4,3.3,7.4,7.4c0,4.1-3.3,7.4-7.4,7.4
	S217.5,151.6,217.5,147.5z M225.6,181.2c-4.1,0-7.4-3.3-7.4-7.4c0-4.1,3.3-7.4,7.4-7.4c4.1,0,7.4,3.3,7.4,7.4
	C233,177.9,229.7,181.2,225.6,181.2z M240,209.2c-4.1,0-7.4-3.3-7.4-7.4s3.3-7.4,7.4-7.4s7.4,3.3,7.4,7.4S244,209.2,240,209.2z
	 M254.7,174.8c-4.1,0-7.4-3.3-7.4-7.4s3.3-7.4,7.4-7.4c4.1,0,7.4,3.3,7.4,7.4S258.8,174.8,254.7,174.8z"/>
<line class="st4" x1="331.7" y1="81.6" x2="331.7" y2="323.9"/>
<g>
	<g>
		<path class="st0" d="M509.2,251.2l-12-31.7H422l-12,31.7h-32.7l64.3-163.8h35.8l64.3,163.8H509.2z M459.6,116.1l-29.5,78.1H489
			L459.6,116.1z"/>
		<path class="st0" d="M555.3,251.2V87.4h80.5c30.2,0,46.7,18.7,46.7,41.7c0,20.4-13.3,34.4-28.5,37.6c17.7,2.7,31.7,20.1,31.7,40
			c0,25.5-16.7,44.4-47.6,44.4H555.3z M653.1,133.8c0-12-8.3-21.1-22.8-21.1h-46.2v42.2h46.2C644.7,154.9,653.1,146.3,653.1,133.8z
			 M656.2,203c0-12.3-8.6-22.8-24.8-22.8h-47.4v45.7h47.4C646.9,225.9,656.2,217.3,656.2,203z"/>
		<path class="st0" d="M851.9,251.2V124.7l-50.1,126.4h-12.3l-50.3-126.4v126.4h-28.7V87.4H751l44.7,112.5l44.4-112.5h40.5v163.8
			H851.9z"/>
		<path class="st0" d="M901.1,169.4v-13.3c37.1-28.1,51.7-40.4,51.7-54.3c0-10-8.7-14.5-17.5-14.5c-11.2,0-19.6,4.4-25.8,11.3
			l-9.7-10.9c8.4-10.3,21.9-15.3,35.4-15.3c18.5,0,34.5,10.3,34.5,29.3c0,17.8-16.2,33.5-41.7,52.8h42.2v14.7H901.1z"/>
	</g>
	<g>
		<path class="st1" d="M447.4,309.5c-6.8-0.3-10.2-5.5-10.2-12.8c0-7.6,3.8-12.7,11-12.7c6.8,0,10.9,4.5,10.9,12.4
			c0,6.4-2.7,11.2-7.8,12.6c1.7,1.7,4.1,3.7,7.2,3.7c0.6,0,1.3,0,1.9-0.2l-0.6,2.7c-0.7,0.1-1.5,0.1-2.1,0.1c-4.2,0-7.2-3.2-9.2-5
			L447.4,309.5z M455.4,296.7c0-7-2.8-9.9-7.3-9.9c-4.6,0-7.4,3.1-7.4,10.2c0,7.2,3,10,7.2,10C452.6,306.9,455.4,303.6,455.4,296.7z
			"/>
		<path class="st1" d="M463.9,294.5h-2.6v-2.4h5.6v11.5c0,2.5,0.8,3.5,2.6,3.5c3.6,0,5.1-3.3,5.6-5v-7.6h-2.6v-2.4h5.6v14.6h2.6v2.4
			h-5.3l-0.1-3.5c-0.6,1.4-2.3,4-6.2,4c-3,0-5.1-1.6-5.1-5.2V294.5z"/>
		<path class="st1" d="M483.2,296.9c0-0.3,0-0.5,0-0.7c0-2.8,2.3-4.6,6.8-4.6c4.4,0,6.1,1.9,6.1,6.2v6.9c0,1.2-0.1,2.3,1.5,2.3
			c0.2,0,0.4,0,0.6,0l-0.5,2.2c-0.4,0-0.7,0.1-1,0.1c-2.4,0-3.1-1.5-3.3-3c-0.8,1.7-2.8,3.4-5.5,3.4c-2.7,0-5.4-1.5-5.4-4.6
			c0-3.9,4.1-5.8,10.5-5.9v-1c0-2.9-0.8-4.1-3.4-4.1c-2.3,0-3.8,0.8-3.8,3c0,0.1,0,0.3,0,0.4L483.2,296.9z M493.1,301.4
			c-5.2,0-7.4,1.2-7.4,3.4c0,1.4,1,2.4,2.7,2.4c2.3,0,4.5-1.8,4.6-4V301.4z"/>
		<path class="st1" d="M499.7,306.7h2.6v-21.8h-3v-2.4h5.9v24.2h2.7v2.4h-8.2V306.7z"/>
		<path class="st1" d="M509.9,306.7h2.6v-12.2h-3v-2.4h5.9v14.6h2.6v2.4h-8.2V306.7z M513.6,284.1c1.2,0,2.1,0.9,2.1,2.1
			c0,1.2-0.9,2.1-2.1,2.1c-1.2,0-2.1-0.9-2.1-2.1C511.5,285,512.4,284.1,513.6,284.1z"/>
		<path class="st1" d="M522.3,294.5h-3.1v-2.4h3.2l0.2-5h2.7v5h4.8v2.4h-4.8v9.5c0,2.1,0.4,3.1,1.6,3.1c0.9,0,1.5-0.6,1.9-2l2.3,1
			c-0.8,1.9-2,3.4-4.5,3.4c-3.4,0-4.2-2.7-4.2-5.4V294.5z"/>
		<path class="st1" d="M533.9,314.6c0.6,0.6,1.4,1,2.3,1c1.4,0,2.8-1.4,3.1-4.3l0.3-2.6l-6.1-14.3h-2v-2.4h7.7v2.4h-2.6l3.4,8.1
			c0.3,0.7,0.7,1.8,1,2.6c0.1-0.8,0.6-1.8,0.9-2.6l3.1-8.1h-2.4v-2.4h7.3v2.4h-2l-5.7,14.3l-0.4,3.2c-0.3,2.2-1.6,6.1-5.8,6.1
			c-1.7,0-2.9-0.7-3.6-1.2L533.9,314.6z"/>
		<path class="st1" d="M565.6,301.2h-7.1V299h7.1v-7.7h2.4v7.7h7.1v2.2H568v7.8h-2.4V301.2z"/>
		<path class="st1" d="M588.9,301.7c0,3.7,2.3,5.2,5.3,5.2c3.1,0,5.3-1.4,5.3-3.7c0-6.2-13-3.3-13-12.6c0-4,3-6.5,7.8-6.5
			c4.9,0,8.2,2.6,8.2,6.2v0.3l-3.1,0.7c-0.1-3-1.8-4.5-5.2-4.5c-2.7,0-4.4,1.3-4.4,3.5c0,6.6,13,3.9,13,12.4c0,3.8-3,6.9-8.7,6.9
			c-5.5,0-8.4-3.5-8.4-6.8c0-0.1,0-0.3,0-0.4L588.9,301.7z"/>
		<path class="st1" d="M620.5,304.7c-0.9,3-3.1,4.8-6.8,4.8c-5,0-7.9-2.8-7.9-8.9c0-4.5,1.9-9.1,7.8-9.1c4.5,0,6.9,2.4,6.9,7.6v1.8
			H609c0,3.1,0.9,6.1,4.8,6.1c2.2,0,3.7-1.4,4.1-2.9L620.5,304.7z M617.4,298.7V298c0-2.3-1.2-4-3.9-4c-2.4,0-4,1.4-4.5,4.7H617.4z"
			/>
		<path class="st1" d="M623.1,306.7h2.6v-12.2h-3v-2.4h5.8v3.7c0.6-1.8,2.1-4.2,4.8-4.2c1.9,0,2.8,1.5,2.8,1.5l-1.6,2.3
			c0,0-0.6-1.1-1.7-1.1c-2.5,0-3.7,3.5-4.2,6.1v6.3h3v2.4h-8.5V306.7z"/>
		<path class="st1" d="M638.4,294.5h-2v-2.4h7.8v2.4h-2.6l4,10.4l3.9-10.4h-2.4v-2.4h7.3v2.4h-2l-5.7,14.6h-2.4L638.4,294.5z"/>
		<path class="st1" d="M655.9,306.7h2.6v-12.2h-3v-2.4h5.9v14.6h2.6v2.4h-8.2V306.7z M659.6,284.1c1.2,0,2.1,0.9,2.1,2.1
			c0,1.2-0.9,2.1-2.1,2.1c-1.2,0-2.1-0.9-2.1-2.1C657.5,285,658.4,284.1,659.6,284.1z"/>
		<path class="st1" d="M680.3,304.7c-0.9,3-2.9,4.8-6.7,4.8c-4.8,0-7.4-3.4-7.4-9.1c0-6.7,3.6-8.9,7.6-8.9c3.7,0,6.4,1.6,6.4,4.7
			c0,0.2,0,0.4,0,0.6l-3,0.5V297c0-2.3-1.4-3-3.4-3c-3.4,0-4.4,3.2-4.4,6.6c0,4.7,1.8,6.5,4.2,6.5c2.3,0,3.7-1.3,4.1-2.9
			L680.3,304.7z"/>
		<path class="st1" d="M697.4,304.7c-0.9,3-3.1,4.8-6.8,4.8c-5,0-7.9-2.8-7.9-8.9c0-4.5,1.9-9.1,7.8-9.1c4.5,0,6.9,2.4,6.9,7.6v1.8
			h-11.5c0,3.1,0.9,6.1,4.8,6.1c2.2,0,3.7-1.4,4.1-2.9L697.4,304.7z M694.3,298.7V298c0-2.3-1.2-4-3.9-4c-2.4,0-4,1.4-4.5,4.7H694.3
			z"/>
		<path class="st1" d="M702.7,303.9c0,0.1,0,0.2,0,0.3c0,1.7,1.3,2.9,4,2.9c2.2,0,3.7-0.7,3.7-2.3c0-4.1-9.9-2-9.9-8.2
			c0-2.8,2.1-5.1,6.4-5.1c3.3,0,6.1,1.4,6.1,4.1c0,0.2,0,0.5-0.1,0.8l-3,0.5c0-0.1,0-0.3,0-0.5c0-1.1-0.7-2.5-3.3-2.5
			c-1.9,0-3.2,0.7-3.2,2.1c0,4.3,9.9,1.9,9.9,8.2c0,3.4-2.8,5.3-6.7,5.3c-3.3,0-6.9-1.4-6.9-4.7c0-0.2,0-0.3,0-0.5L702.7,303.9z"/>
		<path class="st1" d="M724,295.7h16.6v2.2H724V295.7z M724,302.3h16.6v2.2H724V302.3z"/>
		<path class="st1" d="M751.6,306.6h3.3v-19.5h-3.3v-2.5h10.8c4,0,8,1.4,8,6.2c0,3.1-1.7,4.8-3.4,5.4v0.1c3,0.7,4.5,2.9,4.5,5.7
			c0,3.9-2.8,7-8.9,7h-11.1V306.6z M762.6,295.2c2.8,0,4.2-1.4,4.2-4c0-2.6-1.4-4-5-4h-3.8v7.9H762.6z M762.2,306.4
			c4.3,0,5.8-1.8,5.8-4.3c0-3.2-2.4-4.2-5.3-4.2h-4.7v8.5H762.2z"/>
		<path class="st1" d="M776.3,294.5h-2.6v-2.4h5.6v11.5c0,2.5,0.8,3.5,2.6,3.5c3.6,0,5.1-3.3,5.6-5v-7.6h-2.6v-2.4h5.6v14.6h2.6v2.4
			h-5.3l-0.1-3.5c-0.6,1.4-2.3,4-6.2,4c-3,0-5.1-1.6-5.1-5.2V294.5z"/>
		<path class="st1" d="M797.8,303.9c0,0.1,0,0.2,0,0.3c0,1.7,1.3,2.9,4,2.9c2.2,0,3.7-0.7,3.7-2.3c0-4.1-9.9-2-9.9-8.2
			c0-2.8,2.1-5.1,6.4-5.1c3.3,0,6.1,1.4,6.1,4.1c0,0.2,0,0.5-0.1,0.8l-3,0.5c0-0.1,0-0.3,0-0.5c0-1.1-0.7-2.5-3.3-2.5
			c-1.9,0-3.2,0.7-3.2,2.1c0,4.3,9.9,1.9,9.9,8.2c0,3.4-2.8,5.3-6.7,5.3c-3.3,0-6.9-1.4-6.9-4.7c0-0.2,0-0.3,0-0.5L797.8,303.9z"/>
		<path class="st1" d="M811.1,306.7h2.6v-12.2h-3v-2.4h5.9v14.6h2.6v2.4h-8.2V306.7z M814.8,284.1c1.2,0,2.1,0.9,2.1,2.1
			c0,1.2-0.9,2.1-2.1,2.1c-1.2,0-2.1-0.9-2.1-2.1C812.7,285,813.6,284.1,814.8,284.1z"/>
		<path class="st1" d="M821.3,306.7h2.6v-12.2h-3v-2.4h5.8v3.7c0.5-1.2,2.1-4.3,6.1-4.3c2.9,0,5.1,1.6,5.1,5.2v9.9h2.6v2.4h-7.9
			v-2.4h2.3v-9.1c0-2.6-0.9-3.5-2.7-3.5c-3.8,0-5.2,4.1-5.5,5.5v7.1h2.3v2.4h-7.9V306.7z"/>
		<path class="st1" d="M857.2,304.7c-0.9,3-3.1,4.8-6.8,4.8c-5,0-7.9-2.8-7.9-8.9c0-4.5,1.9-9.1,7.8-9.1c4.5,0,6.9,2.4,6.9,7.6v1.8
			h-11.5c0,3.1,0.9,6.1,4.8,6.1c2.2,0,3.7-1.4,4.1-2.9L857.2,304.7z M854.2,298.7V298c0-2.3-1.2-4-3.9-4c-2.4,0-4,1.4-4.5,4.7H854.2
			z"/>
		<path class="st1" d="M862.6,303.9c0,0.1,0,0.2,0,0.3c0,1.7,1.3,2.9,4,2.9c2.2,0,3.7-0.7,3.7-2.3c0-4.1-9.9-2-9.9-8.2
			c0-2.8,2.1-5.1,6.4-5.1c3.3,0,6.1,1.4,6.1,4.1c0,0.2,0,0.5-0.1,0.8l-3,0.5c0-0.1,0-0.3,0-0.5c0-1.1-0.7-2.5-3.3-2.5
			c-1.9,0-3.2,0.7-3.2,2.1c0,4.3,9.9,1.9,9.9,8.2c0,3.4-2.8,5.3-6.7,5.3c-3.3,0-6.9-1.4-6.9-4.7c0-0.2,0-0.3,0-0.5L862.6,303.9z"/>
		<path class="st1" d="M878.5,303.9c0,0.1,0,0.2,0,0.3c0,1.7,1.3,2.9,4,2.9c2.2,0,3.7-0.7,3.7-2.3c0-4.1-9.9-2-9.9-8.2
			c0-2.8,2.1-5.1,6.4-5.1c3.3,0,6.1,1.4,6.1,4.1c0,0.2,0,0.5-0.1,0.8l-3,0.5c0-0.1,0-0.3,0-0.5c0-1.1-0.7-2.5-3.3-2.5
			c-1.9,0-3.2,0.7-3.2,2.1c0,4.3,9.9,1.9,9.9,8.2c0,3.4-2.8,5.3-6.7,5.3c-3.3,0-6.9-1.4-6.9-4.7c0-0.2,0-0.3,0-0.5L878.5,303.9z"/>
	</g>
</g>
</svg>
